<?xml version="1.0" encoding="UTF-8"?>
<svg width="203px" height="322px" viewBox="0 0 203 322" version="1.1" xmlns="http://www.w3.org/2000/svg" xmlns:xlink="http://www.w3.org/1999/xlink"  preserveAspectRatio="none">
    <title>Group 24</title>
    <defs>
        <polygon id="path-1" points="0.000356086856 0.332 163.305154 0.332 163.305154 177.046409 0.000356086856 177.046409"></polygon>
    </defs>
    <g id="Symbols" stroke="none" stroke-width="1" fill="none" fill-rule="evenodd">
        <g id="Group-24">
            <path d="M106.6295,200.5821 C106.9425,200.2651 106.9555,199.7331 106.9925,199.2291 C106.6955,199.6261 106.5755,200.0411 106.6295,200.5821" id="Fill-1" fill="#231F20"></path>
            <path d="M106.9997,199.2198 L106.9947,199.2118 L106.9927,199.2298 C106.9957,199.2258 106.9997,199.2198 106.9997,199.2198" id="Fill-3" fill="#231F20"></path>
            <path d="M85.0993,103.9103 C85.1203,104.0313 85.1443,104.1713 85.1683,104.3123 C85.1613,104.1763 85.1463,104.0373 85.0993,103.9103" id="Fill-5" fill="#231F20"></path>
            <path d="M106.8688,174.8761 L106.3298,174.8291 C106.2548,173.6411 106.9218,174.4491 106.7268,173.3551 C105.9458,172.9691 106.7018,171.5241 106.2778,171.1671 C106.3398,171.1721 106.3318,170.6321 106.5698,170.6521 C106.1498,170.5121 106.4428,170.1041 106.3188,169.7711 C106.1968,169.6541 106.2018,169.8681 106.0828,169.9671 L105.8898,169.1981 C106.0028,168.8871 106.2398,168.7971 106.3058,169.1251 C106.3368,167.0841 106.0928,157.2931 105.7058,155.1191 C105.4168,155.4241 105.6758,156.0841 105.2068,156.3761 C104.8908,155.8171 105.2398,155.5181 104.9328,155.2831 C105.6418,155.0081 105.0138,154.0001 105.7148,153.5071 L105.2918,153.3711 L105.5218,153.0651 C104.9038,150.5531 105.2758,152.4991 105.1948,150.2361 C105.0268,148.9361 104.4078,148.3611 104.5598,147.6191 C104.5638,147.7271 104.3358,148.0341 104.2048,147.7051 C104.5598,147.6181 103.8738,146.8261 104.2248,146.6331 C104.1528,146.3051 104.1138,145.2301 103.6498,145.6331 C103.8828,145.4311 103.9028,144.4661 104.1648,145.0181 C104.1518,144.6931 104.1968,144.3751 104.0688,144.1521 L103.9668,144.5781 C103.8018,143.4941 104.1328,142.8681 103.6258,142.1971 L103.4648,142.6161 C103.3778,141.9681 103.2948,141.4261 103.7598,141.1291 L103.9668,141.7841 C103.8618,140.7051 103.7738,140.0571 103.4368,139.1791 L103.4518,139.5021 C102.8638,138.3971 101.9208,132.4401 101.2008,131.4461 L100.8698,131.9681 L100.4638,131.0921 C100.4698,131.1991 101.7328,131.4121 101.6188,131.5141 C101.4058,129.5721 100.0978,119.5001 100.1328,117.6841 C100.2628,116.9381 100.7178,117.4881 100.7778,117.4901 C100.5418,116.6251 100.3368,117.1531 100.2878,116.4011 C100.3338,116.1891 100.5878,116.4111 100.6538,116.5211 C100.5738,116.1971 100.6718,115.8791 100.4928,115.8731 C100.3998,116.2981 99.9138,116.1761 99.6288,116.3831 L99.5638,115.4161 L99.8638,115.4261 C99.8488,115.2111 98.9988,114.9721 99.0518,114.0101 C98.9958,112.4021 98.6938,110.6841 98.5788,109.0731 C98.7588,109.0771 98.9018,109.4011 99.0448,109.7271 C99.0288,109.5111 98.9458,109.1881 99.0508,108.9761 C98.7818,109.3991 98.7648,108.3281 98.6678,108.6461 C97.8108,107.5581 98.2828,105.9631 97.6698,104.9861 C97.0088,104.9681 86.2548,104.1331 85.4838,104.2341 C85.4598,103.9141 85.4348,103.5971 85.4868,103.4921 C85.3158,103.5971 85.3048,104.2311 85.4478,104.5511 L85.8688,104.5571 C86.1058,105.3031 85.6438,104.7661 85.7628,105.5081 C85.4298,105.5891 85.2738,104.9121 85.1688,104.3131 C85.1948,104.8601 85.0138,105.4321 85.4108,105.6081 C85.3318,106.1371 84.9898,105.6021 84.9198,106.2341 C85.0718,106.6601 85.4728,107.1971 85.3328,107.7251 L85.2718,107.7231 C85.0698,108.9881 86.0148,109.5341 85.7948,110.6941 L85.6678,110.5871 C85.5168,111.0061 85.8698,111.7541 85.7428,112.4911 C85.7878,112.2801 86.0128,112.0751 86.1008,112.4991 C85.9818,113.3451 86.2608,113.8801 86.0648,114.5101 L86.4628,115.0481 C86.7308,117.9101 88.3928,129.1611 88.6968,132.0381 L88.6338,131.9301 C89.2298,136.2981 90.0058,145.3051 90.8058,149.8101 C90.5338,150.5371 90.6878,151.5001 90.6548,152.2391 C90.7588,151.8211 91.0028,151.9421 91.0148,152.2621 C91.1418,154.4981 91.2518,152.3951 91.5588,154.6441 C92.0798,157.2211 92.3928,167.2081 92.2458,169.5341 C92.8098,170.7461 92.5258,172.3181 92.9028,173.5181 L92.7818,173.4011 C93.0488,174.6971 92.9848,182.1181 93.2238,183.6291 L93.2848,183.4221 C93.6448,184.7321 93.1068,184.5761 92.9898,185.6281 C93.5258,185.4661 93.8868,186.5871 93.9468,187.0191 L93.8268,187.0081 C93.9478,187.6561 94.4888,189.1161 94.6008,190.1931 L94.3028,190.1631 C94.6568,191.0501 94.5918,192.7481 94.6478,193.3941 C94.5888,194.8791 94.1438,197.1781 94.6038,199.1431 L93.8008,200.4481 L93.8898,200.6331 C93.8898,200.6331 104.1888,202.3891 106.2788,199.6821 L106.5768,199.7141 L106.5208,199.1921 C106.6458,198.5611 106.2918,198.2821 106.5898,198.3151 L106.5828,199.1751 C106.6468,198.5431 106.8188,198.9771 106.9948,199.2121 C107.0148,198.9481 107.0418,198.6911 107.1258,198.4801 C107.0078,198.3591 107.0058,198.5741 106.9448,198.6751 C106.8288,198.3391 106.5338,197.8771 106.6568,197.4601 C106.6628,196.8131 107.1358,197.4021 107.1418,196.6481 C107.2338,192.6701 107.4258,188.8071 107.1728,184.7961 C107.2908,184.6991 107.2918,184.8081 107.3518,184.9211 C107.1678,183.7181 107.1708,182.6411 106.9798,181.5461 C107.0978,181.2341 107.2758,181.1421 107.3938,181.0451 C107.2758,181.1421 107.1318,179.6251 107.0238,178.0711 C106.9778,177.2941 106.9318,176.5081 106.8968,175.9101 C106.8668,175.3131 106.8538,174.9021 106.8688,174.8761" id="Fill-7" fill="#FFFFFF"></path>
            <path d="M123.6286,197.9542 C124.2676,197.5812 124.9276,196.6382 125.5786,195.7712 C124.8546,196.2872 124.2506,196.9582 123.6286,197.9542" id="Fill-9" fill="#231F20"></path>
            <path d="M125.5963,195.7579 L125.6023,195.7419 C125.5923,195.7539 125.5863,195.7619 125.5783,195.7719 L125.5963,195.7579 Z" id="Fill-11" fill="#231F20"></path>
            <path d="M94.9879,205.9327 C95.2649,205.8827 95.5819,205.8267 95.9019,205.7687 C95.5929,205.8067 95.2809,205.8557 94.9879,205.9327" id="Fill-13" fill="#231F20"></path>
            <path d="M159.6793,158.8468 L159.4943,158.3198 C161.4503,156.9548 160.4123,158.4318 162.1553,157.0978 C162.4633,155.9858 165.2723,155.2348 165.7333,154.5468 C165.7473,154.6078 166.6893,154.1038 166.7433,154.3438 C166.8253,153.8128 167.6583,153.7338 168.2053,153.3408 C168.3693,153.1288 167.9913,153.3128 167.7713,153.2858 L169.0763,152.4528 C169.6733,152.2968 169.9083,152.4488 169.3483,152.7848 C169.7403,152.5878 170.3163,152.3688 171.0093,152.0648 C171.7013,151.7538 172.5303,151.4118 173.4633,151.0708 C173.9293,150.8978 174.4123,150.6918 174.9243,150.5198 C175.1433,150.4478 175.3673,150.3738 175.5923,150.2988 C175.5923,150.3058 175.5873,150.3128 175.5883,150.3188 C175.6343,150.3258 175.6723,150.3418 175.7003,150.3558 C175.8203,150.4218 175.7263,150.5158 175.8053,150.4808 C175.8193,150.4778 175.8473,150.4668 175.8923,150.4478 C176.4763,150.1058 176.1423,150.2798 177.0043,149.6978 C177.0533,149.6638 177.0943,149.6348 177.1373,149.6058 L177.1743,149.5858 C177.5983,149.3928 176.8843,149.8598 177.4103,149.5868 C176.6923,150.0118 176.5933,150.0878 176.4883,150.1668 C176.3863,150.2428 176.2753,150.3298 175.6453,150.5858 L176.3393,150.3168 L175.9083,150.4928 C176.4813,150.4478 176.1843,150.4808 175.9763,150.6018 C176.0183,150.6518 176.5013,150.9748 176.1513,151.0628 C176.1863,151.0298 176.4803,151.0738 176.4543,151.2648 C176.3643,151.2328 176.3653,151.1848 176.2723,151.2968 C176.1573,151.4358 176.0303,151.6358 175.8983,151.8408 C175.6363,152.2498 175.3553,152.6818 175.1093,152.6898 C174.7353,153.2488 173.1933,154.7948 174.0673,154.5938 C173.6323,154.7008 172.2453,156.0638 172.8713,155.0648 C172.4253,155.5428 171.9303,155.9468 171.6703,156.3538 L172.3653,155.8518 C170.8413,157.4728 169.7513,158.0758 168.9803,159.3698 L169.7183,158.9508 C168.7623,159.8818 167.9703,160.6758 167.2593,160.6648 L168.1563,159.6248 C167.3513,160.3768 166.7063,160.9788 166.0923,161.5508 C165.4793,162.1238 164.9493,162.7208 164.3053,163.3938 L164.8253,162.9888 C164.4503,163.4558 163.5743,164.3008 162.4573,165.3498 C161.3053,166.3538 159.9313,167.5898 158.4723,168.7168 C155.6143,171.0518 152.5723,173.1438 151.7763,173.9738 L152.8463,173.7748 L151.3683,175.0338 C151.5683,174.9198 151.5363,173.4938 151.7593,173.5058 C150.0413,174.5768 144.5663,177.7388 138.7733,180.2928 C133.0163,182.9038 127.0003,184.9018 125.1473,185.3608 C123.6233,185.6428 124.7013,184.8728 124.6983,184.8108 C122.9643,185.5148 124.0513,185.4368 122.5223,185.8748 C122.0863,185.9368 122.5213,185.5648 122.7383,185.4418 C122.0853,185.6878 121.4303,185.7498 121.4303,185.9358 C122.3023,185.8128 122.0863,186.3708 122.5293,186.5558 C121.8683,186.7398 121.2143,186.9398 120.5483,187.1088 L120.5533,186.7978 C120.1123,186.9128 119.6593,187.8948 117.6643,188.2928 C114.3263,189.0508 110.7393,190.0428 107.3453,190.6968 C107.3613,190.5098 108.0453,190.2498 108.7303,189.9918 C108.2773,190.0818 107.5993,190.2798 107.1583,190.2458 C108.0373,190.3798 105.7863,190.7558 106.4503,190.7478 C104.1183,191.9778 100.7693,191.9508 98.6483,192.8148 C98.6083,193.1528 97.9093,196.1218 97.1803,199.1118 C96.4553,202.0908 95.7043,205.0778 95.7643,205.4638 C95.0433,205.5628 94.3253,205.6618 94.0963,205.6328 C94.3093,205.7848 95.7373,205.6488 96.4723,205.4258 L96.5353,204.9938 C98.2393,204.5738 96.9803,205.1858 98.6603,204.8698 C98.8083,205.1968 97.2663,205.5258 95.9023,205.7688 C97.1403,205.6158 98.4093,205.6648 98.8503,205.2048 C100.0323,205.1458 98.7893,205.6378 100.2113,205.5408 C101.1903,205.2778 102.4353,204.7158 103.6133,204.6938 L103.6033,204.7568 C106.4493,204.5898 107.7453,203.4238 110.3443,203.2298 L110.0963,203.4018 C111.0323,203.3878 112.7373,202.7658 114.3933,202.5758 C113.9173,202.6188 113.4633,202.4748 114.4203,202.2028 C116.3213,201.9728 117.5303,201.4558 118.9443,201.3528 L120.1533,200.6928 C121.7593,200.2798 124.5363,199.4928 127.8753,198.4138 C131.2083,197.3118 135.1083,195.9388 138.9423,194.3478 C142.7763,192.7588 146.5573,191.0178 149.7173,189.3978 C151.2973,188.5878 152.7223,187.8108 153.9463,187.1508 C155.1573,186.4588 156.1653,185.8828 156.9033,185.4618 L156.6973,185.6378 C161.1713,183.0338 167.8103,178.6728 173.8963,173.4788 C176.9383,170.8838 179.8213,168.0748 182.3513,165.3808 C183.5693,163.9838 184.7833,162.7018 185.7933,161.3968 C186.3863,160.6588 186.9563,159.9478 187.5013,159.2688 C188.2753,158.2528 188.9383,157.2658 189.5913,156.3518 C190.0853,155.8248 190.6013,155.2238 191.1243,154.5858 C191.6423,153.9478 192.2103,153.2718 192.6253,152.5858 C193.5233,151.2068 194.4253,149.8208 195.2063,148.6198 C194.2003,149.9688 194.2063,149.5168 194.8593,148.5038 C195.4613,147.5998 195.7363,146.9628 196.0293,146.4548 C196.2873,145.9568 196.4653,145.6148 196.5893,145.3748 C196.8213,144.9038 196.8083,144.8558 196.7883,144.8068 C196.7373,144.7098 196.7153,144.6068 198.4443,141.1968 C198.8583,140.3418 199.4233,139.2168 200.1173,137.8678 C200.8423,136.4478 201.6873,134.7958 202.6263,132.9598 L202.1523,132.8888 C201.9703,132.8768 201.7213,132.9008 201.5063,132.9058 C201.0613,132.9218 200.6083,132.9398 200.1473,132.9568 C199.2293,132.9918 198.2833,133.0258 197.3163,133.0618 C195.4933,133.1438 193.5883,133.2298 191.6473,133.3178 C190.6903,133.3648 189.7243,133.4118 188.7553,133.4598 C187.7653,133.5348 186.7373,133.6498 185.7283,133.7408 L184.2113,133.8848 C183.7053,133.9338 183.1513,134.0618 182.6263,134.1448 C181.5613,134.3318 180.5043,134.5168 179.4633,134.6998 C178.4093,134.9128 177.3323,135.2338 176.2943,135.4878 C175.2513,135.7678 174.2313,135.9868 173.2313,136.3128 C172.7343,136.4538 172.2333,136.6258 171.7383,136.7998 C171.3083,136.9478 170.8863,137.0918 170.4713,137.2348 C169.8903,137.4208 169.3403,137.6208 168.8233,137.8258 C166.7253,138.5948 165.0843,139.3118 164.0733,139.7218 C161.5943,141.4558 158.1463,142.8928 155.8653,144.7318 L156.0533,144.4818 C154.7643,145.3598 150.3723,148.1208 146.3133,151.4098 C142.2133,154.6538 138.4763,158.2918 137.2913,159.6178 L137.6743,159.3258 C135.7513,161.7598 135.6433,161.0748 133.8813,162.7598 C134.4903,162.8888 132.9503,165.0408 132.3393,165.8278 L132.2753,165.7218 C131.3303,166.9068 129.5263,169.8238 128.0473,171.7888 L127.8753,171.5298 C126.8403,173.3338 124.4013,176.3098 123.5663,177.5148 C121.4643,180.1308 118.0713,184.0568 115.9173,187.9578 L113.6173,189.8638 L113.4543,190.2588 C113.4543,190.2588 114.9453,192.6358 117.0743,194.5458 C119.2013,196.4578 121.9623,197.9088 124.4563,196.1328 L124.6533,196.3738 L125.2513,195.4148 C126.1303,194.3748 126.1963,193.6618 126.3893,193.9048 L125.3223,195.4218 C126.1543,194.3428 125.7523,195.2188 125.6023,195.7418 C125.9433,195.2868 126.2813,194.8508 126.6093,194.5278 C126.6643,194.2418 126.3973,194.6208 126.2253,194.7608 C126.5453,194.0938 126.8883,193.0978 127.5043,192.4448 C128.3133,191.3168 127.9503,192.6408 128.8933,191.3288 C133.9363,184.4698 139.0833,178.1998 144.6273,172.0598 C144.8453,172.0038 144.6903,172.1658 144.5703,172.3798 C146.1503,170.4438 147.7363,168.9198 149.2463,167.2468 C149.7883,166.9098 150.0413,166.9318 150.2593,166.8948 C150.0373,166.9358 152.2263,164.7298 154.6153,162.7258 C155.7893,161.7008 157.0483,160.7618 157.9913,160.0258 C158.9613,159.3318 159.6303,158.8628 159.6793,158.8468" id="Fill-15" fill="#FFFFFF"></path>
            <g id="Group-19" transform="translate(0.000000, 0.668000)">
                <mask id="mask-2" fill="white">
                    <use xlink:href="#path-1"></use>
                </mask>
                <g id="Clip-18"></g>
                <path d="M48.3024,91.8067 C31.9194,86.6587 23.5284,88.7287 13.7764,74.5937 C9.2294,68.0027 5.6164,60.2467 6.3224,52.2717 C7.0274,44.2957 13.2894,36.4297 21.2934,36.2367 C26.1374,36.1187 30.6264,38.6757 34.5584,41.5057 C46.6614,50.2187 56.2474,62.3877 61.8834,76.1947 C56.2794,56.1027 56.0744,34.5307 61.2984,14.3357 C62.2444,10.6777 63.4454,6.9227 66.0434,4.1807 C72.0984,-2.2123 83.5504,-0.0843 89.4234,6.4757 C95.2954,13.0357 96.8134,22.3707 97.1304,31.1697 C97.4994,41.4337 96.5764,51.7437 94.3904,61.7797 C104.2954,52.6877 115.0914,44.5667 126.5724,37.5687 C131.0604,34.8327 135.8404,32.2087 141.0784,31.7847 C151.7484,30.9167 161.6104,40.3537 162.9064,50.9797 C164.2034,61.6047 162.6344,80.8727 153.7394,86.8287 C144.8454,92.7857 115.7534,95.2137 118.2224,99.2057 C132.8474,96.7397 146.1904,104.4347 151.3124,115.4027 C155.2464,123.8277 149.8994,134.5697 141.4724,138.4967 C133.0454,142.4247 122.8314,140.6127 114.7404,136.0307 C106.6504,131.4497 100.2664,124.4287 94.1064,117.4647 C99.7484,138.2677 90.8184,162.1947 72.9254,174.2117 C70.3944,175.9127 67.4414,177.4437 64.4304,176.9537 C61.0264,176.4007 58.5594,173.4307 56.8404,170.4397 C49.3204,157.3487 50.6344,139.7287 60.0164,127.8987 C51.2614,132.8247 45.0094,133.0997 36.2554,138.0257 C28.7424,142.2517 20.1944,141.8467 12.0104,139.1387 C3.1124,136.1947 -2.0196,121.4977 0.7544,112.5437 C9.5034,84.3127 48.6704,98.3577 48.3024,91.8067" id="Fill-17" fill="#FFFFFF" mask="url(#mask-2)"></path>
            </g>
            <path d="M31.0434,201.1419 C31.4074,206.0609 31.9354,211.3709 32.5814,216.9159 C33.0554,220.9759 33.5934,225.1589 34.1934,229.4379 C36.6444,246.9339 40.0534,265.8439 43.6824,282.8029 C46.3644,295.3349 47.7304,307.9789 49.0944,320.6099 C77.4194,320.9599 105.7454,321.3109 134.0714,321.6599 C136.8974,321.6959 140.0034,321.6639 142.1414,320.4029 C143.7394,319.4599 144.7514,318.0709 145.0914,316.6389 C151.5814,289.3989 158.4454,259.3799 164.8214,228.2809 C165.7474,223.7619 166.6634,219.2229 167.5684,214.6639 C168.4574,210.1719 169.3374,205.6639 170.1984,201.1419 C124.4004,201.2089 78.6014,201.2769 32.8014,201.3439 L31.0434,201.1419 Z" id="Fill-20" fill="#FCBA12"></path>
            <path d="M78.0387,114.8214 C73.7397,114.7224 69.8027,112.3894 66.4737,109.6694 C59.8967,104.2944 54.5707,95.8694 56.6747,87.6404 C58.1747,81.7734 63.3257,77.2684 69.1207,75.5064 C74.9147,73.7444 81.2317,74.4294 86.9897,76.3084 C92.6797,78.1664 98.4597,81.7354 100.1077,87.4904 C100.6657,89.4384 100.7017,91.5084 100.4637,93.5214 C99.7837,99.2524 96.8247,104.6804 92.3777,108.3564 C87.9307,112.0334 82.0417,113.9184 76.2857,113.5074" id="Fill-22" fill="#FCBA12"></path>
        </g>
    </g>
</svg>